<svg width="56" height="56" viewBox="0 0 56 56" fill="none" xmlns="http://www.w3.org/2000/svg">
<circle cx="28" cy="28" r="27.5" stroke="#DDB96D"/>
<mask id="mask0_1695_414" style="mask-type:luminance" maskUnits="userSpaceOnUse" x="22" y="22" width="12" height="12">
<path d="M34 22H22V34H34V22Z" fill="white"/>
</mask>
<g mask="url(#mask0_1695_414)">
<path d="M22.225 27.475L27.475 22.225C27.775 21.925 28.225 21.925 28.525 22.225C28.825 22.525 28.825 22.975 28.525 23.275L24.55 27.25H33.25C33.7 27.25 34 27.55 34 28C34 28.45 33.7 28.75 33.25 28.75H24.55L28.525 32.725C28.825 33.025 28.825 33.475 28.525 33.775C28.375 33.925 28.225 34 28 34C27.775 34 27.625 33.925 27.475 33.775L22.225 28.525C21.925 28.225 21.925 27.775 22.225 27.475Z" fill="#DDB96D"/>
</g>
</svg>
