<svg width="48" height="51" viewBox="0 0 48 51" fill="none" xmlns="http://www.w3.org/2000/svg">
<g filter="url(#filter0_d_1695_388)">
<rect width="48" height="48" rx="24" fill="url(#paint0_linear_1695_388)" shape-rendering="crispEdges"/>
<path d="M22.7201 18.88C22.7201 18.1731 23.2932 17.6 24.0001 17.6C24.707 17.6 25.2801 18.1731 25.2801 18.88V29.12C25.2801 29.8269 24.707 30.4 24.0001 30.4C23.2932 30.4 22.7201 29.8269 22.7201 29.12V18.88Z" fill="white"/>
<path d="M18.8801 25.28C18.1732 25.28 17.6001 24.7069 17.6001 24C17.6001 23.2931 18.1732 22.72 18.8801 22.72L29.1201 22.72C29.827 22.72 30.4001 23.2931 30.4001 24C30.4001 24.7069 29.827 25.28 29.1201 25.28L18.8801 25.28Z" fill="white"/>
</g>
<defs>
<filter id="filter0_d_1695_388" x="0" y="0" width="48" height="51" filterUnits="userSpaceOnUse" color-interpolation-filters="sRGB">
<feFlood flood-opacity="0" result="BackgroundImageFix"/>
<feColorMatrix in="SourceAlpha" type="matrix" values="0 0 0 0 0 0 0 0 0 0 0 0 0 0 0 0 0 0 127 0" result="hardAlpha"/>
<feOffset dy="3"/>
<feComposite in2="hardAlpha" operator="out"/>
<feColorMatrix type="matrix" values="0 0 0 0 0.734167 0 0 0 0 0.580873 0 0 0 0 0.255123 0 0 0 1 0"/>
<feBlend mode="normal" in2="BackgroundImageFix" result="effect1_dropShadow_1695_388"/>
<feBlend mode="normal" in="SourceGraphic" in2="effect1_dropShadow_1695_388" result="shape"/>
</filter>
<linearGradient id="paint0_linear_1695_388" x1="24" y1="0" x2="24" y2="48" gradientUnits="userSpaceOnUse">
<stop stop-color="#EBCB88"/>
<stop offset="1" stop-color="#CDA44E"/>
</linearGradient>
</defs>
</svg>
