<svg width="48" height="51" viewBox="0 0 48 51" fill="none" xmlns="http://www.w3.org/2000/svg">
<g filter="url(#filter0_d_1686_1659)">
<rect width="48" height="48" rx="24" fill="url(#paint0_linear_1686_1659)" shape-rendering="crispEdges"/>
<path d="M24 17C21.2397 17 19 19.0159 19 21.5C19 25.5 24 31 24 31C24 31 29 25.5 29 21.5C29 19.0159 26.7603 17 24 17ZM24 24C23.6044 24 23.2178 23.8827 22.8889 23.6629C22.56 23.4432 22.3036 23.1308 22.1522 22.7654C22.0009 22.3999 21.9613 21.9978 22.0384 21.6098C22.1156 21.2219 22.3061 20.8655 22.5858 20.5858C22.8655 20.3061 23.2219 20.1156 23.6098 20.0384C23.9978 19.9613 24.3999 20.0009 24.7654 20.1522C25.1308 20.3036 25.4432 20.56 25.6629 20.8889C25.8827 21.2178 26 21.6044 26 22C25.9994 22.5303 25.7885 23.0386 25.4136 23.4136C25.0386 23.7885 24.5303 23.9994 24 24Z" fill="white"/>
</g>
<defs>
<filter id="filter0_d_1686_1659" x="0" y="0" width="48" height="51" filterUnits="userSpaceOnUse" color-interpolation-filters="sRGB">
<feFlood flood-opacity="0" result="BackgroundImageFix"/>
<feColorMatrix in="SourceAlpha" type="matrix" values="0 0 0 0 0 0 0 0 0 0 0 0 0 0 0 0 0 0 127 0" result="hardAlpha"/>
<feOffset dy="3"/>
<feComposite in2="hardAlpha" operator="out"/>
<feColorMatrix type="matrix" values="0 0 0 0 0.734167 0 0 0 0 0.580873 0 0 0 0 0.255123 0 0 0 1 0"/>
<feBlend mode="normal" in2="BackgroundImageFix" result="effect1_dropShadow_1686_1659"/>
<feBlend mode="normal" in="SourceGraphic" in2="effect1_dropShadow_1686_1659" result="shape"/>
</filter>
<linearGradient id="paint0_linear_1686_1659" x1="24" y1="0" x2="24" y2="48" gradientUnits="userSpaceOnUse">
<stop stop-color="#EBCB88"/>
<stop offset="1" stop-color="#CDA44E"/>
</linearGradient>
</defs>
</svg>
